<svg width="53" height="44" viewBox="0 0 53 44" fill="none" xmlns="http://www.w3.org/2000/svg">
<g id="user">
<rect width="53" height="44" rx="22" fill="#EE4BBA"/>
<path id="Vector" d="M34.7812 31.625V29.3333C34.7812 28.1178 34.2694 26.952 33.3583 26.0924C32.4472 25.2329 31.2114 24.75 29.9229 24.75H21.4208C20.1323 24.75 18.8966 25.2329 17.9855 26.0924C17.0744 26.952 16.5625 28.1178 16.5625 29.3333V31.625" stroke="white" stroke-width="1.5" stroke-linecap="round" stroke-linejoin="round"/>
<path id="Vector_2" d="M26.5 20.625C29.2442 20.625 31.4688 18.7782 31.4688 16.5C31.4688 14.2218 29.2442 12.375 26.5 12.375C23.7558 12.375 21.5312 14.2218 21.5312 16.5C21.5312 18.7782 23.7558 20.625 26.5 20.625Z" stroke="white" stroke-width="1.5" stroke-linecap="round" stroke-linejoin="round"/>
</g>
</svg>
